<?xml version="1.0" encoding="utf-8"?>
<!-- Generator: Adobe Illustrator 23.0.5, SVG Export Plug-In . SVG Version: 6.00 Build 0)  -->
<svg version="1.1" id="Capa_1" xmlns="http://www.w3.org/2000/svg" xmlns:xlink="http://www.w3.org/1999/xlink" x="0px" y="0px"
	 viewBox="0 0 134.1 134.1" style="enable-background:new 0 0 134.1 134.1;" xml:space="preserve">
<style type="text/css">
	.st0{fill:#E19D17;}
	.st1{font-family:'Montserrat-ExtraLight';}
	.st2{font-size:9px;}
	.st3{fill:none;stroke:#E19D17;}
	.st4{font-family:'Montserrat-SemiBold';}
	.st5{font-size:5px;}
	.st6{font-size:4.997px;}
	.st7{font-size:5.0006px;}
	.st8{font-size:4.9994px;}
	.st9{font-size:5.0024px;}
	.st10{font-family:'Montserrat-ExtraBold';}
	.st11{font-size:11px;}
	.st12{font-size:11.0023px;}
	.st13{font-size:11.0035px;}
</style>
<g id="Grupo_3" transform="translate(0.192 -4.208)">
	<path class="st0" d="M77,60.1c-0.6,0-1-0.4-1-1V45c0-0.6,0.4-1,1-1s1,0.4,1,1v14.1C78,59.7,77.6,60.1,77,60.1z"/>
	<path class="st0" d="M74.3,69.7c-0.6,0-1-0.4-1-1v-1.5l-1-0.5c-1-0.5-1.7-1.5-1.7-2.7V45c0-0.6,0.4-1,1-1s1,0.4,1,1v19
		c0,0.4,0.2,0.7,0.6,0.9l1.6,0.8c0.3,0.2,0.6,0.5,0.6,0.9v2.1C75.3,69.2,74.9,69.7,74.3,69.7z"/>
	<path class="st0" d="M77,98.6c-0.9,0-1.7-0.3-2.4-1c-0.8-0.7-1.2-1.6-1.3-2.7l0-21c0-0.6,0.4-1,1-1s1,0.4,1,1v20.9
		c0,0.4,0.3,0.9,0.7,1.3c0.6,0.6,1.5,0.6,2,0c0.4-0.4,0.7-0.8,0.7-1.4l0-28.2c0-0.4,0.2-0.7,0.6-0.9l1.6-0.8
		c0.3-0.2,0.6-0.5,0.6-0.9V45c0-0.6,0.4-1,1-1s1,0.4,1,1v19c0,1.2-0.6,2.2-1.7,2.7l-1,0.5v27.7c-0.1,1.1-0.6,2.1-1.3,2.8
		C78.7,98.2,77.9,98.6,77,98.6z"/>
	<path class="st0" d="M54,98.5c-0.9,0-1.7-0.3-2.4-0.9C50.9,97,50.4,96,50.3,95l0-28.4c0-0.6,0.4-1,1-1s1,0.4,1,1v28.3
		c0,0.4,0.3,0.9,0.7,1.2c0.6,0.5,1.5,0.5,2,0c0.4-0.4,0.6-0.8,0.7-1.3l0-20.3c0-0.2,0-0.3,0.1-0.5l2.6-5.1V51.4
		c-0.5-3-3.1-5.2-6.1-5.4v15.5c0,0.6-0.4,1-1,1s-1-0.4-1-1V45c0-0.5,0.4-0.9,0.9-1c4.4-0.4,8.5,2.7,9.2,7.1c0,0.1,0,0.1,0,0.2v18
		c0,0.2,0,0.3-0.1,0.5l-2.6,5.1v20.1c-0.1,1.1-0.6,2.1-1.4,2.7C55.7,98.2,54.9,98.5,54,98.5z"/>
</g>
<g>
	<path class="st0" d="M67.1,0C30.1,0,0,30.1,0,67.1s30.1,67.1,67.1,67.1s67.1-30.1,67.1-67.1S104,0,67.1,0z M67.1,130.1
		c-30,0-55.2-21.1-61.5-49.2h14.9c0.3,0,0.5-0.2,0.5-0.5s-0.2-0.5-0.5-0.5H5.3C4.5,75.8,4,71.5,4,67.1c0-4.4,0.5-8.7,1.3-12.8h15.1
		c0.3,0,0.5-0.2,0.5-0.5s-0.2-0.5-0.5-0.5H5.5C11.9,25.1,37,4,67.1,4c30,0,55.2,21.1,61.5,49.2h-14.9c-0.3,0-0.5,0.2-0.5,0.5
		s0.2,0.5,0.5,0.5h15.1c0.9,4.1,1.3,8.4,1.3,12.8c0,4.4-0.5,8.7-1.3,12.8h-15.1c-0.3,0-0.5,0.2-0.5,0.5s0.2,0.5,0.5,0.5h14.9
		C122.2,109,97.1,130.1,67.1,130.1z"/>
	<path class="st0" d="M41.2,53.2H29.5c-0.3,0-0.5,0.2-0.5,0.5s0.2,0.5,0.5,0.5h11.6c0.3,0,0.5-0.2,0.5-0.5S41.5,53.2,41.2,53.2z"/>
	<path class="st0" d="M27.2,53.2h-4c-0.3,0-0.5,0.2-0.5,0.5s0.2,0.5,0.5,0.5h4c0.3,0,0.5-0.2,0.5-0.5S27.5,53.2,27.2,53.2z"/>
	<path class="st0" d="M104.6,53.2H92.9c-0.3,0-0.5,0.2-0.5,0.5s0.2,0.5,0.5,0.5h11.6c0.3,0,0.5-0.2,0.5-0.5S104.9,53.2,104.6,53.2z"
		/>
	<path class="st0" d="M110.9,53.2h-4c-0.3,0-0.5,0.2-0.5,0.5s0.2,0.5,0.5,0.5h4c0.3,0,0.5-0.2,0.5-0.5S111.2,53.2,110.9,53.2z"/>
	<path class="st0" d="M41.2,79.9H29.5c-0.3,0-0.5,0.2-0.5,0.5s0.2,0.5,0.5,0.5h11.6c0.3,0,0.5-0.2,0.5-0.5S41.5,79.9,41.2,79.9z"/>
	<path class="st0" d="M27.2,79.9h-4c-0.3,0-0.5,0.2-0.5,0.5s0.2,0.5,0.5,0.5h4c0.3,0,0.5-0.2,0.5-0.5S27.5,79.9,27.2,79.9z"/>
	<path class="st0" d="M104.6,79.9H92.9c-0.3,0-0.5,0.2-0.5,0.5s0.2,0.5,0.5,0.5h11.6c0.3,0,0.5-0.2,0.5-0.5S104.9,79.9,104.6,79.9z"
		/>
	<path class="st0" d="M110.9,79.9h-4c-0.3,0-0.5,0.2-0.5,0.5s0.2,0.5,0.5,0.5h4c0.3,0,0.5-0.2,0.5-0.5S111.2,79.9,110.9,79.9z"/>
</g>
<text transform="matrix(1 0 0 1 14.021 69.896)" class="st0 st1 st2">E</text>
<text transform="matrix(1 0 0 1 14.021 69.896)" class="st3 st1 st2">E</text>
<text transform="matrix(1 0 0 1 20.033 69.896)" class="st0 st1 st2">S</text>
<text transform="matrix(1 0 0 1 20.033 69.896)" class="st3 st1 st2">S</text>
<text transform="matrix(1 0 0 1 25.3789 69.896)" class="st0 st1 st2">T</text>
<text transform="matrix(1 0 0 1 25.3789 69.896)" class="st3 st1 st2">T</text>
<text transform="matrix(1 0 0 1 100.748 69.896)" class="st0 st1 st2">2020</text>
<text transform="matrix(1 0 0 1 100.748 69.896)" class="st3 st1 st2">2020</text>
<g id="Grupo_1" transform="translate(166.066 281.325)">
	<text transform="matrix(0.736 0.677 -0.677 0.736 -137.4352 -175.3181)" class="st0 st4 st5">S</text>
	<text transform="matrix(0.7711 0.6368 -0.6368 0.7711 -134.5439 -172.696)" class="st0 st4 st5">I</text>
	<text transform="matrix(0.8165 0.5774 -0.5774 0.8165 -133.0001 -171.3382)" class="st0 st4 st6">M</text>
	<text transform="matrix(0.867 0.4983 -0.4983 0.867 -128.1258 -167.923)" class="st0 st4 st5">P</text>
	<text transform="matrix(0.9018 0.4322 -0.4322 0.9018 -124.247 -165.712)" class="st0 st4 st5">L</text>
	<text transform="matrix(0.9309 0.3654 -0.3654 0.9309 -120.8639 -164.086)" class="st0 st4 st5">E</text>
	<text transform="matrix(0.9609 0.277 -0.277 0.9609 -116.9423 -162.5105)" class="st0 st4 st7">M</text>
	<text transform="matrix(0.9826 0.1858 -0.1858 0.9826 -111.218 -160.914)" class="st0 st4 st5">E</text>
	<text transform="matrix(0.9948 0.1021 -0.1021 0.9948 -107.0889 -160.1199)" class="st0 st4 st5">N</text>
	<text transform="matrix(0.9998 2.233835e-02 -2.233835e-02 0.9998 -102.066 -159.637)" class="st0 st4 st5">T</text>
	<text transform="matrix(0.9988 -4.993055e-02 4.993055e-02 0.9988 -98.313 -159.55)" class="st0 st4 st5">E</text>
	<text transform="matrix(0.9871 -0.16 0.16 0.9871 -92.387 -159.9225)" class="st0 st4 st8">D</text>
	<text transform="matrix(0.9685 -0.2489 0.2489 0.9685 -87.3135 -160.7965)" class="st0 st4 st9">E</text>
	<text transform="matrix(0.9477 -0.3191 0.3191 0.9477 -83.264 -161.85)" class="st0 st4 st5">L</text>
	<text transform="matrix(0.9295 -0.3688 0.3688 0.9295 -79.7511 -163.0611)" class="st0 st4 st5">I</text>
	<text transform="matrix(0.908 -0.4191 0.4191 0.908 -77.8391 -163.7821)" class="st0 st4 st5">C</text>
	<text transform="matrix(0.8779 -0.4788 0.4788 0.8779 -73.7819 -165.725)" class="st0 st4 st5">I</text>
	<text transform="matrix(0.8457 -0.5336 0.5336 0.8457 -71.954 -166.6631)" class="st0 st4 st5">O</text>
	<text transform="matrix(0.797 -0.604 0.604 0.797 -67.5441 -169.4938)" class="st0 st4 st5">S</text>
	<text transform="matrix(0.7413 -0.6712 0.6712 0.7413 -64.3809 -171.862)" class="st0 st4 st5">O</text>
</g>
<g id="Grupo_128">
	<text transform="matrix(0.8601 -0.5101 0.5101 0.8601 37.6981 28.9149)" class="st0 st10 st11">M</text>
	<text transform="matrix(0.9515 -0.3077 0.3077 0.9515 47.4259 23.1812)" class="st0 st10 st11">O</text>
	<text transform="matrix(0.9915 -0.1302 0.1302 0.9915 56.976 20.189)" class="st0 st10 st11">S</text>
	<text transform="matrix(0.9996 2.652589e-02 -2.652589e-02 0.9996 64.439 19.214)" class="st0 st10 st11">T</text>
	<text transform="matrix(0.9818 0.19 -0.19 0.9818 71.2559 19.2194)" class="st0 st10 st12">A</text>
	<text transform="matrix(0.9292 0.3697 -0.3697 0.9292 80.6181 21.0841)" class="st0 st10 st11">Z</text>
	<text transform="matrix(0.8487 0.5288 -0.5288 0.8487 87.8846 23.8092)" class="st0 st10 st13">A</text>
</g>
</svg>
